PathFileType	4	(X/Y/Z)	C:\Users\dbl\Desktop\20210112(1)\20210112\bx_y_0_501.trc
DataRate	CameraRate	NumFrames	NumMarkers	Units	OrigDataRate	OrigDataStartFrame	OrigNumFrames
50.00	50.00	       4	43	mm	50.00	302	       603
Frame#	Time	Top.Head			R.Acromium			L.Acromium			Sternum			R.ASIS			L.ASIS			V.Sacral			R.Thigh.Upper			R.Thigh.Front			R.Thigh.Rear			R.Knee.Lat			R.Knee.Med			R.Shank.Upper			R.Shank.Front			R.Shank.Rear			R.Ankle.Lat			R.Midfoot.Lat			R.Toe.Lat			R.Toe.Tip			R.Toe.Med			R.Ankle.Med			R.Midfoot.Sup			R.Heel			L.Thigh.Upper			L.Thigh.Front			L.Thigh.Rear			L.Knee.Lat			L.Knee.Med			L.Shank.Upper			L.Shank.Front			L.Shank.Rear			L.Ankle.Lat			L.Midfoot.Lat			L.Toe.Lat			L.Toe.Tip			L.Toe.Med			L.Ankle.Med			L.Midfoot.Sup			L.Heel			origin1 front left			origin2 front right			origin 3 back right			origin 4 back leftt			
		X1	Y1	Z1	X2	Y2	Z2	X3	Y3	Z3	X4	Y4	Z4	X5	Y5	Z5	X6	Y6	Z6	X7	Y7	Z7	X8	Y8	Z8	X9	Y9	Z9	X10	Y10	Z10	X11	Y11	Z11	X12	Y12	Z12	X13	Y13	Z13	X14	Y14	Z14	X15	Y15	Z15	X16	Y16	Z16	X17	Y17	Z17	X18	Y18	Z18	X19	Y19	Z19	X20	Y20	Z20	X21	Y21	Z21	X22	Y22	Z22	X23	Y23	Z23	X24	Y24	Z24	X25	Y25	Z25	X26	Y26	Z26	X27	Y27	Z27	X28	Y28	Z28	X29	Y29	Z29	X30	Y30	Z30	X31	Y31	Z31	X32	Y32	Z32	X33	Y33	Z33	X34	Y34	Z34	X35	Y35	Z35	X36	Y36	Z36	X37	Y37	Z37	X38	Y38	Z38	X39	Y39	Z39	X40	Y40	Z40	X41	Y41	Z41	X42	Y42	Z42	X43	Y43	Z43	

302	6.020	-158.91791	81.87471	1391.10632	-405.45029	-87.48106	1217.66138	-409.98914	264.44925	1250.75781	-455.37885	85.76044	1218.77527	-763.34436	-16.42824	1000.19196	-753.93494	205.07898	1020.14197	-938.06415	83.28867	1093.05566	-831.53748	-80.76689	855.74298	-746.53613	-17.11922	800.53925	-833.44531	-70.09785	719.99591	-815.75342	-38.23518	604.02655	-786.36646	70.21378	564.76892	-812.57916	-34.26002	558.39093	-752.22925	10.73492	524.08063	-837.59241	-45.71801	472.04706	-773.62067	-10.27615	202.26273	-664.18268	-69.06312	160.48143	-622.06274	-78.95563	157.28229	-560.99762	-35.22773	163.39067	-605.60309	20.32199	167.79434	-728.04095	71.40689	220.88293	-677.84857	53.28185	162.72871	-798.28247	50.52599	172.96156	-820.64856	275.97134	869.09534	-751.16895	210.92957	805.47699	-833.37610	277.28439	699.25116	-842.52771	247.11775	622.24023	-785.47937	142.90215	565.97412	-828.31055	243.92241	564.36438	-762.82361	205.86191	534.41010	-849.96124	255.40465	485.44180	-777.60675	225.82045	200.64236	-667.66742	300.52847	158.56190	-629.74103	306.80600	161.62938	-562.12781	257.40375	166.21277	-597.34247	222.72749	174.14291	-720.43719	157.20924	220.86821	-677.86664	176.22289	162.12607	-800.15729	175.43556	181.37936	-527.98450	304.24924	146.46649	-517.97791	-72.29798	142.96985	-876.02051	-78.56479	141.52438	-882.56012	295.92270	144.57355	
303	6.040	-163.34900	81.29025	1403.26196	-407.14441	-87.84071	1225.36230	-412.11533	264.08511	1258.25696	-456.90714	85.73438	1221.01501	-762.12866	-16.20814	1001.32996	-752.91101	204.90108	1020.93115	-937.78760	83.21262	1092.50037	-829.80042	-80.58757	856.15125	-744.98450	-16.95233	800.88977	-831.74432	-70.10985	720.50507	-814.69202	-38.15879	604.16052	-785.53119	70.29832	564.91028	-811.69806	-34.28178	558.63397	-751.43884	10.66877	524.18469	-836.85309	-45.81138	472.32135	-773.56421	-10.27196	202.43303	-664.20514	-69.07056	160.50685	-622.07715	-78.96963	157.29642	-560.99927	-35.25605	163.39670	-605.58777	20.32396	167.78874	-727.95264	71.42464	220.86327	-677.80347	53.32844	162.72754	-798.28290	50.53519	172.97534	-819.18420	275.50031	869.37885	-749.76654	210.63380	805.78833	-832.01111	276.88754	699.53705	-841.54675	246.87939	622.48242	-784.67413	142.75526	566.13251	-827.45483	243.78838	564.54645	-762.06494	205.74380	534.42493	-849.33270	255.15179	485.64474	-777.62177	225.78056	200.72098	-667.61395	300.45560	158.59071	-629.77789	306.78198	161.65143	-562.11023	257.47708	166.24681	-597.33728	222.67291	174.12099	-720.38214	157.15262	220.89633	-677.86865	176.11942	162.03458	-800.09882	175.37447	181.42407	-527.97369	304.22687	146.49034	-517.98962	-72.29399	142.92038	-876.02692	-78.56448	141.55789	-882.67059	295.83389	144.51047	
304	6.060	-168.05402	80.69712	1415.57739	-408.92474	-88.19070	1233.18506	-414.36996	263.72589	1265.90698	-458.48260	85.72853	1223.33777	-760.82446	-15.95627	1002.62000	-751.82104	204.70651	1021.74365	-937.38062	83.13698	1091.94299	-827.96094	-80.40520	856.54022	-743.38904	-16.80260	801.22913	-829.74561	-70.27510	721.26801	-813.59082	-38.09000	604.30829	-784.64880	70.36916	565.05920	-810.74548	-34.23183	558.85535	-750.61627	10.64692	524.28748	-836.02954	-45.84811	472.56406	-773.47711	-10.26752	202.56296	-664.23242	-69.07838	160.52509	-622.08008	-78.99541	157.31894	-561.00787	-35.31309	163.40962	-605.56982	20.32926	167.77521	-727.86670	71.44597	220.86597	-677.73883	53.41072	162.75916	-798.28540	50.53242	173.02641	-817.67053	275.05078	869.66522	-748.27759	210.30261	806.07404	-830.53271	276.45447	699.77350	-840.53662	246.65379	622.74017	-783.79443	142.60822	566.26611	-826.58752	243.62538	564.76422	-761.26721	205.63573	534.45844	-848.65686	254.85616	485.84320	-777.68951	225.71545	200.75223	-667.56195	300.38605	158.63069	-629.80548	306.76749	161.66493	-562.09833	257.60095	166.28465	-597.32391	222.65921	174.06573	-720.31122	157.08176	220.92404	-677.84717	176.02705	161.97757	-800.03857	175.29324	181.45981	-527.95990	304.18967	146.52986	-517.99597	-72.34966	142.94633	-876.04309	-78.57740	141.58257	-882.77161	295.78467	144.47888	
305	6.080	-173.05383	80.10934	1428.03687	-410.83939	-88.53751	1241.15906	-416.71280	263.43347	1273.72241	-460.10544	85.74344	1225.74390	-759.44208	-15.73130	1004.13831	-750.66431	204.49460	1022.57928	-936.78461	83.05059	1091.36670	-826.05035	-80.22834	856.87097	-741.76379	-16.63995	801.58130	-827.50867	-70.53200	722.16388	-812.42596	-38.00477	604.47845	-783.69006	70.43301	565.20709	-809.69849	-34.10880	559.03577	-749.72156	10.70010	524.36255	-835.12830	-45.82557	472.79919	-773.33820	-10.26954	202.66447	-664.23761	-69.06059	160.54184	-622.06946	-79.01735	157.33458	-561.00348	-35.37646	163.41028	-605.54254	20.34015	167.74379	-727.74469	71.49062	220.87779	-677.66205	53.53413	162.78526	-798.26935	50.53558	173.09930	-815.96301	274.72354	869.98413	-746.66418	209.92703	806.38458	-828.94800	276.02594	700.02051	-839.45233	246.50279	623.05939	-782.86536	142.46739	566.33569	-825.68890	243.43138	565.01013	-760.43573	205.51135	534.51135	-847.88086	254.59190	486.05301	-777.76233	225.61978	200.74107	-667.52930	300.34579	158.70657	-629.81726	306.76318	161.66859	-562.05231	257.70657	166.32095	-597.30640	222.66316	173.97867	-720.23016	156.99635	220.91339	-677.80249	175.97177	161.92917	-799.96576	175.19832	181.50229	-527.94946	304.15390	146.57236	-517.99927	-72.41858	143.01727	-876.07935	-78.57201	141.56256	-882.84900	295.79190	144.50110	
